<svg id="Layer_1" data-name="Layer 1" xmlns="http://www.w3.org/2000/svg" viewBox="0 0 525 150"><defs><style>.cls-1{fill:#256c92;}</style></defs><title>presearch-io-horizontal-blue</title><path class="cls-1" d="M64.07,87h9.74a18.77,18.77,0,0,0,8-1.8,20.44,20.44,0,0,0,6.25-4.81,22.35,22.35,0,0,0,4-7,22.82,22.82,0,0,0,1.44-8.06A19.77,19.77,0,0,0,92,57.57a24.22,24.22,0,0,0-4.21-6.85,21.32,21.32,0,0,0-6.37-4.93,17.29,17.29,0,0,0-8-1.92H47.73V106H64.07Zm0-28.13h8.3a4.48,4.48,0,0,1,3,1.45c1,1,1.56,2.64,1.56,5.28s-.6,4.21-1.44,5a3.73,3.73,0,0,1-2.76,1.45H64.07Z"/><path class="cls-1" d="M28.74,30.74v88.52A5.74,5.74,0,0,0,34.48,125H123a5.75,5.75,0,0,0,5.75-5.74V30.74A5.75,5.75,0,0,0,123,25H34.48A5.74,5.74,0,0,0,28.74,30.74Zm82.47,82.48H46.14a5.75,5.75,0,0,1-5.75-5.74V42.4a5.75,5.75,0,0,1,5.75-5.74h65.07A5.74,5.74,0,0,1,117,42.4v65.08A5.74,5.74,0,0,1,111.21,113.22Z"/><rect class="cls-1" x="71.4" y="94.35" width="38.34" height="11.78"/><path class="cls-1" d="M495.69,72a16.54,16.54,0,0,0-1.94-5.15A9.91,9.91,0,0,0,490,63.43a11.61,11.61,0,0,0-5.85-1.26,15.89,15.89,0,0,0-8.59,2.41,17.56,17.56,0,0,0-6.3,6.64V47.4h-6.41v54.29h6.53V78.21a16.84,16.84,0,0,1,1.95-4.13,15.74,15.74,0,0,1,3-3.2,14.77,14.77,0,0,1,3.67-2.18,11.21,11.21,0,0,1,3.89-.8,6.76,6.76,0,0,1,6.07,3Q490,73.79,490,79.81v21.65h6.29v-23A38.61,38.61,0,0,0,495.69,72Z"/><path class="cls-1" d="M298.92,83.48a19.38,19.38,0,0,0-4.7-2.18c-2-.57-4.12-1.26-6.76-1.83-1.6-.35-3-.8-4.24-1.15a12.94,12.94,0,0,1-2.86-1.14,3.61,3.61,0,0,1-1.6-1.61,5.87,5.87,0,0,1,2.06-7.1A11.16,11.16,0,0,1,286.89,67a19.8,19.8,0,0,1,6.3,1,16.76,16.76,0,0,1,5.5,3.21l3-3.89a18.67,18.67,0,0,0-6.42-3.67,21.87,21.87,0,0,0-8.13-1.37,20.56,20.56,0,0,0-5.84.8,13.9,13.9,0,0,0-4.7,2.29,10.7,10.7,0,0,0-4.35,8.93,11.12,11.12,0,0,0,.69,3.9,6,6,0,0,0,2.4,2.63,17.21,17.21,0,0,0,4.13,2c1.71.57,3.66,1.14,6.07,1.72,1.83.46,3.43.91,4.81,1.26a21.32,21.32,0,0,1,3.43,1.37,7.47,7.47,0,0,1,2.06,1.72,4.49,4.49,0,0,1,.69,2.4A5.21,5.21,0,0,1,294,96a11.74,11.74,0,0,1-6.76,1.72A22.28,22.28,0,0,1,280,96.42a25.3,25.3,0,0,1-6.87-3.9l-2.75,4.36a22.38,22.38,0,0,0,7.79,4.23,31.13,31.13,0,0,0,9.16,1.49c4.69,0,8.47-1,11.22-3.2a11,11,0,0,0,4.13-8.82,8.38,8.38,0,0,0-.92-4.13A7.9,7.9,0,0,0,298.92,83.48Z"/><path class="cls-1" d="M413.91,62.4a13.27,13.27,0,0,0-7,2.75,18.14,18.14,0,0,0-5.27,6.53V62.63h-6.07v38.83h6.64V77.63A12.77,12.77,0,0,1,407.38,71a16.8,16.8,0,0,1,8.71-2.52V62.52c-.34,0-.57-.12-.92-.12Z"/><path class="cls-1" d="M385.05,93.56V77.75c0-4.93-1.38-8.82-4.24-11.57s-6.76-4.12-11.91-4.12a26.83,26.83,0,0,0-15.12,5L356,71.33c4.35-3.09,8.36-4.58,12.37-4.58A9.39,9.39,0,0,1,378.64,75a5.79,5.79,0,0,1,0,2V80a19.05,19.05,0,0,0-5.16-1.37,48.36,48.36,0,0,0-5.73-.58,20.82,20.82,0,0,0-6.52.92,19.22,19.22,0,0,0-5.16,2.4,10.94,10.94,0,0,0-3.43,3.78A10.17,10.17,0,0,0,351.49,90a11.7,11.7,0,0,0,1,4.82,12.2,12.2,0,0,0,6.87,6.29,14.93,14.93,0,0,0,5,.92,19.49,19.49,0,0,0,8.48-1.83,15.65,15.65,0,0,0,6.53-5.27l.11,2.75a4.25,4.25,0,0,0,1.38,2.75,4.31,4.31,0,0,0,3.09,1.14,1.48,1.48,0,0,0,1.37.23l1.72-.23V96C385.74,96,385.05,95.16,385.05,93.56Zm-6.53-3.78a4.26,4.26,0,0,1-1.37,2.86,10.6,10.6,0,0,1-4.59,3.44A14.26,14.26,0,0,1,366,97.34a10.54,10.54,0,0,1-3.33-.58,8.1,8.1,0,0,1-2.74-1.6,7.41,7.41,0,0,1-1.84-2.41,5.56,5.56,0,0,1-.57-3.09,6.26,6.26,0,0,1,3.09-5.38,14,14,0,0,1,8-2.06,25.92,25.92,0,0,1,9.85,1.83Z"/><path class="cls-1" d="M447.59,92.87a9.53,9.53,0,0,1-2.41,1.83A9.31,9.31,0,0,1,442.09,96a12,12,0,0,1-3.44.46,11.09,11.09,0,0,1-5-1.15,12.09,12.09,0,0,1-4.12-3.09,14.78,14.78,0,0,1-2.75-4.69v.34a16.45,16.45,0,0,1,0-11.46,12.64,12.64,0,0,1,2.75-4.58,11.77,11.77,0,0,1,4.12-3,12.78,12.78,0,0,1,5-1,12.12,12.12,0,0,1,6,1.49,11.17,11.17,0,0,1,4.12,4.24l6.42-2.06a16.67,16.67,0,0,0-6.3-6.87,18.94,18.94,0,0,0-10-2.52,19,19,0,0,0-14.2,6,20.45,20.45,0,0,0-4,6.3,21.19,21.19,0,0,0,0,15.47,19.33,19.33,0,0,0,18.21,12.48,20.15,20.15,0,0,0,10.31-2.75A16.13,16.13,0,0,0,453,96.42a17.59,17.59,0,0,0,2.52-3.9l-6.41-1.94A6.35,6.35,0,0,1,447.59,92.87Z"/><path class="cls-1" d="M341.75,68.13a18.86,18.86,0,0,0-14.08-6,19.24,19.24,0,0,0-8,1.61,20,20,0,0,0-6.3,4.35,19.74,19.74,0,0,0-4.12,6.41,19.52,19.52,0,0,0-1.49,7.79,22.81,22.81,0,0,0,1.49,7.79,19.59,19.59,0,0,0,4,6.41,18.78,18.78,0,0,0,6.3,4.36,21.33,21.33,0,0,0,8,1.6,23.41,23.41,0,0,0,5.61-.69A17.87,17.87,0,0,0,338,99.74a16.48,16.48,0,0,0,3.9-3.09,14.56,14.56,0,0,0,2.63-3.9l-5.61-1.6a8.63,8.63,0,0,1-1.72,2.63,11.62,11.62,0,0,1-2.63,2.07,11.07,11.07,0,0,1-3.21,1.26,11.92,11.92,0,0,1-3.44.45,13.87,13.87,0,0,1-4.81-.91,16.15,16.15,0,0,1-4-2.64,11.64,11.64,0,0,1-2.87-4.12,14.34,14.34,0,0,1-1.37-5.27H347V81.87a20.76,20.76,0,0,0-1.37-7.44A20,20,0,0,0,341.75,68.13ZM314.61,79.58a15.37,15.37,0,0,1,1.26-5,12.35,12.35,0,0,1,2.86-4,13.73,13.73,0,0,1,4-2.63,13.12,13.12,0,0,1,13.86,2.52,13.91,13.91,0,0,1,2.86,4A17.29,17.29,0,0,1,341,79.58Z"/><path class="cls-1" d="M191.94,54.15a17,17,0,0,0-5-3.89,15.44,15.44,0,0,0-6.41-1.49h-22v52.8h6.65V82.67h15.8a14.76,14.76,0,0,0,6.3-1.37,15.85,15.85,0,0,0,4.93-3.78,15.43,15.43,0,0,0,3.09-5.5,17.06,17.06,0,0,0,1.15-6.3,16.89,16.89,0,0,0-1.15-6.18A20.25,20.25,0,0,0,191.94,54.15ZM189,70a13.12,13.12,0,0,1-1.83,3.55,8.38,8.38,0,0,1-2.86,2.41,7.13,7.13,0,0,1-3.78.8H165.14V54.84H180a8.14,8.14,0,0,1,3.66.8,12.16,12.16,0,0,1,3.09,2.29,12.08,12.08,0,0,1,2.87,7.79A13.08,13.08,0,0,1,189,70Z"/><path class="cls-1" d="M222.18,62.52a13.21,13.21,0,0,0-7,2.74,18.24,18.24,0,0,0-5.27,6.53V62.74h-6.07v38.83h6.53V77.63a12.28,12.28,0,0,1,5.27-6.52,16.65,16.65,0,0,1,8.7-2.52v-6c-.34,0-.57-.11-.91-.11Z"/><path class="cls-1" d="M266.39,83.36V81.87A20.77,20.77,0,0,0,265,74.43a19.81,19.81,0,0,0-3.89-6.3,18.88,18.88,0,0,0-14.09-6,19.24,19.24,0,0,0-8,1.61,19,19,0,0,0-10.3,10.76,19.52,19.52,0,0,0-1.49,7.79,20.28,20.28,0,0,0,1.49,7.79,19.59,19.59,0,0,0,4,6.41,18.78,18.78,0,0,0,6.3,4.36,21.33,21.33,0,0,0,8,1.6,23.41,23.41,0,0,0,5.61-.69,17.74,17.74,0,0,0,4.81-2.06,16.48,16.48,0,0,0,3.9-3.09,14.56,14.56,0,0,0,2.63-3.9l-5.61-1.6a6.88,6.88,0,0,1-1.72,2.63A15.05,15.05,0,0,1,254,95.85a11.07,11.07,0,0,1-3.21,1.26,11.92,11.92,0,0,1-3.44.45,13.87,13.87,0,0,1-4.81-.91,16.34,16.34,0,0,1-4-2.64,11.64,11.64,0,0,1-2.87-4.12,14.34,14.34,0,0,1-1.37-5.27H266.5A4.89,4.89,0,0,1,266.39,83.36ZM234,79.58a15.89,15.89,0,0,1,1.26-5,12.38,12.38,0,0,1,2.87-4,13.6,13.6,0,0,1,4-2.63A13.13,13.13,0,0,1,256,70.42a14.3,14.3,0,0,1,2.86,4,17.59,17.59,0,0,1,1.49,5.15Z"/></svg>