<svg id="Layer_1" data-name="Layer 1" xmlns="http://www.w3.org/2000/svg" viewBox="0 0 370 370"><defs><style>.cls-1{fill:#fff;}.cls-2{fill:#2d8eff;}</style></defs><title>presearch-logo-border-blue</title><rect class="cls-1" x="61.74" y="60" width="250" height="250"/><path class="cls-2" d="M144.51,219.62h28a54,54,0,0,0,23.19-5.2,58.36,58.36,0,0,0,18-13.84,64.37,64.37,0,0,0,11.42-20.08,65.49,65.49,0,0,0,4.16-23.19,56.86,56.86,0,0,0-4.5-22.5,68.91,68.91,0,0,0-12.12-19.73,60.8,60.8,0,0,0-18.35-14.2,49.85,49.85,0,0,0-23.19-5.53H97.43v179h47.08Zm0-81h23.88a12.89,12.89,0,0,1,8.66,4.15c2.77,2.77,4.5,7.61,4.5,15.23s-1.73,12.12-4.16,14.54a10.7,10.7,0,0,1-8,4.15H144.51Z"/><path class="cls-2" d="M35,52.23V317.77A17.22,17.22,0,0,0,52.23,335H317.77A17.22,17.22,0,0,0,335,317.77V52.23A17.22,17.22,0,0,0,317.77,35H52.23A17.22,17.22,0,0,0,35,52.23ZM282.43,299.66H87.21A17.22,17.22,0,0,1,70,282.43V87.21A17.22,17.22,0,0,1,87.21,70H282.43a17.22,17.22,0,0,1,17.23,17.23V282.43A17.22,17.22,0,0,1,282.43,299.66Z"/><rect class="cls-2" x="165.62" y="240.73" width="110.42" height="33.92"/></svg>