<svg id="Layer_1" data-name="Layer 1" xmlns="http://www.w3.org/2000/svg" viewBox="0 0 370 370"><defs><style>.cls-1{fill:#fff;fill-opacity:0;}.cls-2{fill:#2d8eff;}</style></defs><title>presearch-logo-borderless-blue</title><rect id="clear-space" class="cls-1" width="370" height="370"/><path class="cls-2" d="M160.13,122h-32.5v51.81h33.91c4.24,0,8-2.36,10.84-5.65,3.29-3.3,5.65-9.42,5.65-19.78s-2.36-17-6.13-20.73A17.53,17.53,0,0,0,160.13,122Z"/><path class="cls-2" d="M312.35,34.86h-255a22.5,22.5,0,0,0-22.5,22.5v255a22.5,22.5,0,0,0,22.5,22.51h255a22.51,22.51,0,0,0,22.51-22.51v-255A22.5,22.5,0,0,0,312.35,34.86ZM127.63,306.6h-64V63.11H163.9a67.71,67.71,0,0,1,31.55,7.54,82.64,82.64,0,0,1,25,19.31A93.69,93.69,0,0,1,236.9,116.8,77.22,77.22,0,0,1,243,147.41,89.07,89.07,0,0,1,237.37,179a87.45,87.45,0,0,1-15.54,27.31,79.36,79.36,0,0,1-24.49,18.84,73.52,73.52,0,0,1-31.56,7.07H127.63Zm179,.47H156.36V260.92H306.6Z"/></svg>