<svg id="Layer_1" data-name="Layer 1" xmlns="http://www.w3.org/2000/svg" viewBox="0 0 450 370"><defs><style>.cls-1{fill:#fff;}.cls-2{fill:#2d8eff;}</style></defs><title>presearch-logo-stacked-blue</title><rect id="clear-space" class="cls-1" width="450" height="370"/><path class="cls-2" d="M204.39,158.34h13.68a26.34,26.34,0,0,0,11.32-2.53,28.59,28.59,0,0,0,8.79-6.76,31.36,31.36,0,0,0,5.57-9.8,32,32,0,0,0,2-11.32,27.75,27.75,0,0,0-2.2-11,34,34,0,0,0-5.91-9.63,29.75,29.75,0,0,0-8.95-6.92,24.29,24.29,0,0,0-11.32-2.7h-36V185h23Zm0-39.53h11.66a6.29,6.29,0,0,1,4.22,2c1.35,1.35,2.2,3.72,2.2,7.43s-.85,5.91-2,7.1a5.23,5.23,0,0,1-3.89,2H204.39Z"/><path class="cls-2" d="M154.73,79.25v124.4a8.07,8.07,0,0,0,8.07,8.07H287.2a8.07,8.07,0,0,0,8.07-8.07V79.25a8.07,8.07,0,0,0-8.07-8.08H162.8A8.07,8.07,0,0,0,154.73,79.25ZM270.65,195.17H179.18a8.08,8.08,0,0,1-8.07-8.08V95.63a8.07,8.07,0,0,1,8.07-8.07h91.47a8.07,8.07,0,0,1,8.07,8.07v91.46A8.08,8.08,0,0,1,270.65,195.17Z"/><rect class="cls-2" x="214.7" y="168.65" width="53.89" height="16.55"/><path class="cls-2" d="M393.31,266.41a16.54,16.54,0,0,0-1.94-5.15,9.91,9.91,0,0,0-3.78-3.44,11.51,11.51,0,0,0-5.85-1.26,15.89,15.89,0,0,0-8.59,2.41,17.56,17.56,0,0,0-6.3,6.64V241.79h-6.41v54.29H367V272.6a16.84,16.84,0,0,1,1.95-4.13,15.74,15.74,0,0,1,3-3.2,14.77,14.77,0,0,1,3.67-2.18,11.21,11.21,0,0,1,3.89-.8,6.74,6.74,0,0,1,6.07,3q2.07,2.91,2.07,8.93v21.65h6.3v-23A38.58,38.58,0,0,0,393.31,266.41Z"/><path class="cls-2" d="M196.54,277.87a19.38,19.38,0,0,0-4.7-2.18c-2-.57-4.12-1.26-6.76-1.83-1.6-.35-3-.81-4.23-1.15a13,13,0,0,1-2.87-1.14,3.66,3.66,0,0,1-1.6-1.61,5.87,5.87,0,0,1,2.06-7.1,11.18,11.18,0,0,1,6.07-1.49,19.53,19.53,0,0,1,6.3,1,16.48,16.48,0,0,1,5.5,3.21l3-3.9a18.81,18.81,0,0,0-6.42-3.66,22.08,22.08,0,0,0-8.13-1.38,20.27,20.27,0,0,0-5.84.81,13.9,13.9,0,0,0-4.7,2.29,10.7,10.7,0,0,0-4.35,8.93,11.12,11.12,0,0,0,.69,3.9,6,6,0,0,0,2.4,2.63,17.21,17.21,0,0,0,4.13,1.95c1.71.57,3.66,1.14,6.07,1.72,1.83.45,3.43.91,4.81,1.26a21.32,21.32,0,0,1,3.43,1.37,7.33,7.33,0,0,1,2.06,1.72,4.49,4.49,0,0,1,.69,2.4,5.21,5.21,0,0,1-2.52,4.7,11.74,11.74,0,0,1-6.76,1.72,22.28,22.28,0,0,1-7.21-1.26,25.3,25.3,0,0,1-6.87-3.9L168,291.26a22.24,22.24,0,0,0,7.79,4.24A31.13,31.13,0,0,0,185,297c4.7,0,8.47-1,11.22-3.2a11,11,0,0,0,4.13-8.82,8.38,8.38,0,0,0-.92-4.13A7.9,7.9,0,0,0,196.54,277.87Z"/><path class="cls-2" d="M311.53,256.79a13.27,13.27,0,0,0-7,2.75,18.24,18.24,0,0,0-5.27,6.53V257h-6.07v38.83h6.64V272a12.77,12.77,0,0,1,5.15-6.64,16.8,16.8,0,0,1,8.71-2.52v-6c-.34,0-.57-.11-.92-.11Z"/><path class="cls-2" d="M282.67,287.94v-15.8c0-4.93-1.37-8.82-4.24-11.57s-6.76-4.12-11.91-4.12a26.83,26.83,0,0,0-15.12,5l2.18,4.23c4.35-3.09,8.36-4.58,12.37-4.58a9.39,9.39,0,0,1,10.31,8.25,5.79,5.79,0,0,1,0,1.95v3.09a19.06,19.06,0,0,0-5.16-1.38,50.58,50.58,0,0,0-5.72-.57,20.84,20.84,0,0,0-6.53.92,19.22,19.22,0,0,0-5.16,2.4,10.94,10.94,0,0,0-3.43,3.78,10.17,10.17,0,0,0-1.15,4.81,11.66,11.66,0,0,0,1,4.81,11.45,11.45,0,0,0,2.75,3.78A11.69,11.69,0,0,0,257,295.5a14.93,14.93,0,0,0,5,.92,19.49,19.49,0,0,0,8.48-1.83,15.65,15.65,0,0,0,6.53-5.27l.11,2.75a4.25,4.25,0,0,0,1.38,2.75,4.31,4.31,0,0,0,3.09,1.14,1.48,1.48,0,0,0,1.37.23l1.72-.23v-5.61C283.36,290.35,282.67,289.55,282.67,287.94Zm-6.53-3.78a4.26,4.26,0,0,1-1.37,2.87,10.5,10.5,0,0,1-4.59,3.43,14,14,0,0,1-6.52,1.26,10.82,10.82,0,0,1-3.33-.57,8.27,8.27,0,0,1-2.74-1.6,7.41,7.41,0,0,1-1.84-2.41,5.57,5.57,0,0,1-.57-3.09,6.24,6.24,0,0,1,3.09-5.38,14.07,14.07,0,0,1,8-2.07,25.93,25.93,0,0,1,9.85,1.84Z"/><path class="cls-2" d="M345.21,287.26a9.77,9.77,0,0,1-2.41,1.83,9.31,9.31,0,0,1-3.09,1.26,12,12,0,0,1-3.44.46,11.25,11.25,0,0,1-5-1.15,12.31,12.31,0,0,1-4.12-3.09,14.83,14.83,0,0,1-2.75-4.7v.35a16.45,16.45,0,0,1,0-11.46,12.64,12.64,0,0,1,2.75-4.58,12,12,0,0,1,4.12-3,13,13,0,0,1,5-1,12.12,12.12,0,0,1,6,1.49,11.17,11.17,0,0,1,4.12,4.24l6.42-2.06a16.61,16.61,0,0,0-6.3-6.87,18.94,18.94,0,0,0-10-2.52,19.23,19.23,0,0,0-8,1.6,19.57,19.57,0,0,0-6.18,4.35,20.34,20.34,0,0,0-4,6.3,21.16,21.16,0,0,0,0,15.46,19.31,19.31,0,0,0,18.21,12.49,20.15,20.15,0,0,0,10.31-2.75,15.93,15.93,0,0,0,3.78-3.09,17.59,17.59,0,0,0,2.52-3.9L346.7,285A6.35,6.35,0,0,1,345.21,287.26Z"/><path class="cls-2" d="M239.37,262.52a18.85,18.85,0,0,0-14.08-6,19.39,19.39,0,0,0-8,1.6,20,20,0,0,0-6.3,4.36,20.46,20.46,0,0,0-5.61,14.2,22.86,22.86,0,0,0,1.49,7.79,19.59,19.59,0,0,0,4,6.41,18.9,18.9,0,0,0,6.3,4.35,21.14,21.14,0,0,0,8,1.61,23.41,23.41,0,0,0,5.61-.69,17.94,17.94,0,0,0,4.82-2.06,16.64,16.64,0,0,0,3.89-3.09,14.56,14.56,0,0,0,2.63-3.9l-5.61-1.6a8.63,8.63,0,0,1-1.72,2.63,11.58,11.58,0,0,1-2.63,2.06,10.79,10.79,0,0,1-3.21,1.26,11.57,11.57,0,0,1-3.43.46,13.78,13.78,0,0,1-4.81-.91,16.21,16.21,0,0,1-4-2.64,11.64,11.64,0,0,1-2.87-4.12,14.34,14.34,0,0,1-1.37-5.27h32.18v-2.75a20.76,20.76,0,0,0-1.37-7.44A20,20,0,0,0,239.37,262.52ZM212.23,274a15.31,15.31,0,0,1,1.26-5,12.35,12.35,0,0,1,2.86-4,13.53,13.53,0,0,1,4-2.63,13.12,13.12,0,0,1,13.86,2.52,13.91,13.91,0,0,1,2.86,4,17.21,17.21,0,0,1,1.49,5.15Z"/><path class="cls-2" d="M89.56,248.54a16.92,16.92,0,0,0-5-3.89,15.44,15.44,0,0,0-6.41-1.49h-22V296h6.65v-18.9h15.8a14.91,14.91,0,0,0,6.3-1.37,15.85,15.85,0,0,0,4.93-3.78,15.51,15.51,0,0,0,3.09-5.5,17.06,17.06,0,0,0,1.15-6.3,16.89,16.89,0,0,0-1.15-6.18A20.25,20.25,0,0,0,89.56,248.54Zm-3,15.81a13.12,13.12,0,0,1-1.83,3.55,8.25,8.25,0,0,1-2.86,2.4,7,7,0,0,1-3.78.81H62.76V249.23H77.65a8.14,8.14,0,0,1,3.66.8,10.64,10.64,0,0,1,6,10.08A13.13,13.13,0,0,1,86.58,264.35Z"/><path class="cls-2" d="M119.8,256.9a13.3,13.3,0,0,0-7,2.75,18.24,18.24,0,0,0-5.27,6.53v-9.05h-6.07V296H108V272a12.34,12.34,0,0,1,5.27-6.53A16.74,16.74,0,0,1,122,263v-6c-.34,0-.57-.12-.91-.12Z"/><path class="cls-2" d="M164,277.75v-1.49a20.77,20.77,0,0,0-1.38-7.44,19.81,19.81,0,0,0-3.89-6.3,18.87,18.87,0,0,0-14.09-6,19.39,19.39,0,0,0-8,1.6,19,19,0,0,0-10.3,10.77,19.69,19.69,0,0,0-1.49,7.79,20.5,20.5,0,0,0,1.49,7.79,19.59,19.59,0,0,0,4,6.41,18.9,18.9,0,0,0,6.3,4.35,21.14,21.14,0,0,0,8,1.61,23.41,23.41,0,0,0,5.61-.69,17.94,17.94,0,0,0,4.82-2.06A16.64,16.64,0,0,0,159,291a14.56,14.56,0,0,0,2.63-3.9l-5.61-1.6a6.88,6.88,0,0,1-1.72,2.63,15,15,0,0,1-2.63,2.06,10.79,10.79,0,0,1-3.21,1.26A11.57,11.57,0,0,1,145,292a13.78,13.78,0,0,1-4.81-.91,16.21,16.21,0,0,1-4-2.64,11.64,11.64,0,0,1-2.87-4.12,14.34,14.34,0,0,1-1.37-5.27h32.18A4.89,4.89,0,0,1,164,277.75ZM131.59,274a15.82,15.82,0,0,1,1.26-5,12.38,12.38,0,0,1,2.87-4,13.4,13.4,0,0,1,4-2.63,13.13,13.13,0,0,1,13.86,2.52,14.3,14.3,0,0,1,2.86,4,17.51,17.51,0,0,1,1.49,5.15Z"/></svg>